<svg width="1841" height="293" fill="none" xmlns="http://www.w3.org/2000/svg"><path fill-rule="evenodd" clip-rule="evenodd" d="M1821.68 175.236c12.17-9.463 18.32-19.079 18.32-28.736s-6.15-19.273-18.32-28.736c-12.14-9.447-30.12-18.604-53.37-27.352-46.49-17.493-113.81-33.264-197.08-46.516C1404.72 17.396 1174.65 1 920.5 1 666.347 1 436.277 17.396 269.765 43.896 186.502 57.148 119.177 72.92 72.69 90.412c-23.25 8.748-41.227 17.905-53.375 27.352C7.15 127.227 1 136.843 1 146.5s6.15 19.273 18.315 28.736c12.148 9.447 30.126 18.604 53.375 27.352 46.487 17.493 113.812 33.264 197.075 46.516C436.277 275.604 666.347 292 920.5 292c254.15 0 484.22-16.396 650.73-42.896 83.27-13.252 150.59-29.023 197.08-46.516 23.25-8.748 41.23-17.905 53.37-27.352zM920.5 293c508.38 0 920.5-65.59 920.5-146.5S1428.88 0 920.5 0C412.122 0 0 65.59 0 146.5S412.122 293 920.5 293z" fill="url(#paint0_linear_608_1171)" fill-opacity=".6"/><defs><linearGradient id="paint0_linear_608_1171" x1="915.731" y1="-71.458" x2="917.943" y2="292.345" gradientUnits="userSpaceOnUse"><stop offset=".661" stop-color="#171A1D"/><stop offset="1" stop-color="#fff" stop-opacity=".6"/></linearGradient></defs></svg>