<svg width="58" height="74" fill="none" xmlns="http://www.w3.org/2000/svg"><path d="M48.234 32.285l-.82.2a2.988 2.988 0 00-2.198 2.154l-.204.797c-.025.1-.17.1-.195 0l-.208-.805a2.992 2.992 0 00-2.196-2.145l-.818-.2a.099.099 0 010-.194l.818-.2a2.992 2.992 0 002.197-2.145l.207-.806c.025-.1.17-.1.195 0l.204.797a2.988 2.988 0 002.198 2.154l.82.2a.099.099 0 010 .193zM44.8 18.255s-.413 2.325-1.669 3.648c-1.179 1.244-2.593.846-2.593.846s-.487-1.354.677-2.582c1.33-1.404 3.585-1.912 3.585-1.912zm-6.417 2.984s-1.208 2.042-2.852 2.86c-1.547.77-2.732-.082-2.732-.082s.019-1.434 1.544-2.194c1.746-.868 4.04-.584 4.04-.584zm-23.367-1.756c1.06 1.343.425 2.641.425 2.641s-1.444.25-2.49-1.077c-1.197-1.516-1.338-3.775-1.338-3.775s2.276.782 3.404 2.212zm7.643 4.252c-1.305-1.427-1.613-3.67-1.613-3.67s2.328.62 3.558 1.965c1.156 1.265.62 2.604.62 2.604s-1.423.35-2.565-.899zm31.39 2.312s-2.115.252-3.58-.449c-1.377-.658-1.394-1.93-1.394-1.93s1.046-.75 2.406-.1c1.553.744 2.568 2.48 2.568 2.48zM3.72 24.862s1.427-1.549 3.003-1.961c1.48-.388 2.346.56 2.346.56s-.285 1.238-1.747 1.62c-1.671.438-3.602-.22-3.602-.22zm19.123-9.712s-1.153.58-2.391-.271c-1.415-.974-2.139-2.844-2.139-2.844s2.13.078 3.465.995c1.253.862 1.065 2.12 1.065 2.12zm9.876-7.563c-.513-1.616.083-3.53.083-3.53s1.638 1.335 2.12 2.86c.454 1.43-.48 2.315-.48 2.315s-1.275-.23-1.723-1.645zm-9.87 1.237c.632 1.579-.35 2.65-.35 2.65s-1.457-.157-2.08-1.718c-.714-1.783-.201-3.99-.201-3.99s1.96 1.376 2.632 3.058zm13.897 4.89c1.479-1.255 3.78-1.518 3.78-1.518s-.672 2.263-2.067 3.446c-1.31 1.111-2.67.566-2.67.566s-.338-1.396.957-2.494zm-8.979 1.63c0-1.915 1.306-3.788 1.306-3.788s1.306 1.98 1.306 3.786c0 1.695-1.313 2.344-1.313 2.344s-1.299-.666-1.299-2.342zm5.867 41.84c-3.359.65-3.94 1.219-4.606 4.506-.006.03-.05.03-.055 0-.665-3.287-1.247-3.856-4.607-4.507-.03-.006-.03-.049 0-.054 3.36-.65 3.942-1.22 4.607-4.507.006-.03.05-.03.055 0 .665 3.287 1.247 3.856 4.606 4.507a.028.028 0 010 .054zm-10.372-.028L29 51.542l5.738 5.614L29 62.77l-5.74-5.614zM29 49.819l-7.5 7.337 7.5 7.337 7.5-7.337-7.5-7.337zm6.971 14.187l-5.338 2.156 7.427-7.075-2.089 4.919zm-16.037-4.924l7.428 7.076-5.35-2.168-2.078-4.908zm2.102-8.784l5.333-2.15-7.427 7.075 2.094-4.925zM29 66.352l-9.652-9.196L29 47.96l9.654 9.196L29 66.352zm9.065-11.123l-7.428-7.076 5.35 2.167 2.078 4.91zM29 46.171l-7.916 3.193-3.313 7.791 3.288 7.767 7.94 3.219 7.923-3.201 3.307-7.784-3.29-7.768L29 46.17zM4.084 19.914s1.572-.222 2.718.247c1.076.44 1.172 1.346 1.172 1.346s-.734.556-1.798.12c-1.215-.497-2.092-1.713-2.092-1.713zm3.89-7.589s1.572-.222 2.718.247c1.076.44 1.173 1.346 1.173 1.346s-.735.556-1.799.12c-1.215-.497-2.092-1.713-2.092-1.713zM39.307 6.35c.982-.858 2.481-1.11 2.481-1.11s-.471 1.484-1.397 2.294c-.87.76-1.748.456-1.748.456s-.195-.888.664-1.64zM50.22 22.1s-.17-.893.71-1.62c1.007-.83 2.514-1.039 2.514-1.039s-.515 1.47-1.466 2.253c-.892.736-1.758.407-1.758.407zm-1.698-11.244s-.137 1.547-.866 2.532c-.683.925-1.607.81-1.607.81s-.384-.826.29-1.74c.773-1.044 2.183-1.602 2.183-1.602zM13.878 8.742c.098-1.285.999-2.483.999-2.483s.713 1.388.62 2.6c-.086 1.138-.933 1.514-.933 1.514s-.772-.506-.686-1.63zm11.51-4.051c.222-1.27 1.237-2.379 1.237-2.379s.574 1.448.363 2.646c-.197 1.125-1.077 1.42-1.077 1.42s-.719-.576-.524-1.687zm29.52 48.294c-1.631-5.483-4.702-9.089-9.163-10.768 3.318-.03 7.065.197 9.745 1.561v4.461c0 1.375-.176 2.999-.581 4.746zm-4.915 10.246c-1.925-6.754-.79-9.593 2.028-14.066 1.005 1.693 1.769 3.707 2.271 6.036a25.833 25.833 0 01-4.3 8.03zm-7.478 6.187c-.179-5.162 1.497-7.942 5.43-10.845-.001 1.804.252 3.793.856 6.046a23.473 23.473 0 01-6.286 4.8zm-25.81.598c-.093-7.033-2.859-10.306-6.79-13.69-.407-3.249-1.647-5.913-3.02-8.578 1.297-1.732 2.923-3.03 4.845-3.887-.856 1.76-.774 4.116 1.578 5.409 1.45.797 4.041.089 4.63-1.758l-1.298-.959c-.327 2.444-4.363 2.605-4.185-.58.065-1.175 1.057-2.469 1.992-2.988a16.6 16.6 0 012.627-.343c2.008-.106 3.937-.184 5.808-.187 2.664-.005 4.637-.01 6.173-.583 1.536.572 3.508.578 6.173.583 1.87.003 3.801.06 5.807.187.872.055 1.709.171 2.506.348.932.523 1.918 1.812 1.982 2.983.179 3.185-3.857 3.024-4.183.58l-1.3.959c.59 1.847 3.181 2.555 4.632 1.758 2.336-1.284 2.431-3.619 1.593-5.374 1.895.865 3.508 2.164 4.814 3.882-1.366 2.655-2.6 5.311-3.004 8.549-3.932 3.383-6.697 6.656-6.791 13.69-3.234 1.477-7.274 2.48-12.294 2.48-5.02 0-9.06-1.003-12.295-2.48zm-7.508-5.398c.605-2.252.859-4.241.857-6.045 3.932 2.903 5.608 5.683 5.43 10.845a23.461 23.461 0 01-6.287-4.8zm-5.436-9.255l.035.025c.44-2.42 1.174-4.497 2.176-6.234 2.822 4.479 3.96 7.318 2.034 14.077a25.82 25.82 0 01-4.245-7.868zM2.509 43.847c2.581-1.431 6.44-1.662 9.869-1.628-4.525 1.706-7.618 5.391-9.23 11.01-.444-1.84-.639-3.551-.639-4.99v-4.392zm1.218-25.108a23.805 23.805 0 014.418-1.884c-.378 2.355.607 5.02 4.167 6.922-3.72.7-5.518 3.4-6.068 4.413l1.298.676c.4-1.742 2.395-4.617 7.52-3.837-1.742.793-2.923 2.386-3.198 4.539l1.467.113c-.04-3.085 2.2-4.418 4.714-4.028l.076.015c2.534.469 4.856 1.026 7.128 2.207-2.842 4.932-2.7 8.158-2.748 9.866-.066 2.345-2.062 3.243-5.18 3.446a7.86 7.86 0 00-.32.018c-1.64.081-3.566-.014-5.675-.185-3.217-.262-6.474-.022-8.817.879V25.76c0-1.957.36-4.417 1.218-7.022zm4.508-8.257a23.422 23.422 0 012.547-2.65c.582 3.182 2.068 5.587 3.868 7.18-3.153-.213-6.58.237-10.118 1.597a25.502 25.502 0 013.703-6.127zM30.74 1.547c-.988 1.21-1.762 2.273-2.298 3.164l-.058.095C27.5 6.25 26.552 7.76 25.796 9.37c-.64-2.56-2.081-5.348-4.245-7.04 2.204-.522 4.678-.827 7.449-.827.594 0 1.172.016 1.739.044zm19.025 8.935c.422.514.814 1.04 1.184 1.57-1.798 3.72-4.489 4.972-8.925 4.201 2.721-2.42 4.388-5.52 4.619-8.918a23.447 23.447 0 013.122 3.147zM31.13 40.454c.772-.879 1.324-2.398 1.154-4.169-.185-1.91-.575-4.57-2.303-6.517.442-.37.897-.705 1.367-1.016 2.64 4.24 2.726 6.69 2.825 8.989.065 1.527.855 2.711 2.192 3.54-1.895.04-3.981.013-5.765-.305.184-.157.36-.33.53-.522zm-3.612-4.033c.155-1.773.03-4.059 1.566-5.81 1.602 1.737 1.434 4.035 1.528 5.81.135 2.57-.754 3.684-1.535 4.124-.811-.473-1.769-1.738-1.56-4.124zm.636-6.64c-1.722 1.946-2.124 4.597-2.309 6.505-.17 1.77.383 3.29 1.156 4.168.174.197.355.375.544.535-1.704.31-3.81.331-5.74.29 1.355-.827 2.167-2.006 2.167-3.522.002-2.322.012-4.733 2.72-9.039.488.318.974.67 1.462 1.063zm.865-4.35c.64.829 1.198 1.603 1.686 2.328-.552.354-1.095.736-1.633 1.154a21.671 21.671 0 00-1.717-1.205 45.305 45.305 0 011.664-2.278zm-.126-19.24c2.905 4.782 5.336 9.425.18 16.287-2.612-3.484-3.301-6.492-2.97-9.237l.022-.162c.333-2.453 1.472-4.697 2.768-6.888zm18.392 10.761a9.94 9.94 0 001.705.636c.014 1.837-.7 4.82-9.247 6.665-2.794.603-5.225 1.392-7.484 2.593a35.526 35.526 0 00-2.048-2.921 19.855 19.855 0 001.948-3.015c3.27-.644 6.141-1.877 8.452-3.532a19.74 19.74 0 002.749.212c1.47 0 2.767-.212 3.925-.638zm1.593-.775c1.1-.687 2.057-1.63 2.902-2.847a26.185 26.185 0 011.65 3.19c-1.268.637-2.925.69-4.552-.343zm-16.044 3.226c.478-1.244.727-2.432.8-3.571.22-4.208 4.276-6.869 9.466-5.78l.498-1.42c-2.177-.187-4.179.081-5.885.692-.772-1.744-.779-4.414.57-6.489 2.702.842 4.95 2.014 6.808 3.316.118 6.645-4.777 11.94-12.257 13.252zM32.321 1.66c1.661.157 3.2.43 4.622.795-.88 2.553-.918 5.51-.436 7.383-1.312.654-2.392 1.536-3.164 2.578-.644-2.81-2.174-5.307-3.581-7.61l-.004-.006c.439-.618 1.523-2.068 2.694-3.035l-.13-.105zM15.256 13.81c2.15-2.413 3.99-6.371 2.901-10.436a26.55 26.55 0 011.594-.551c3.808.964 5.361 6.528 4.934 9.627-.06.253-.114.508-.16.766 0 .003 0 .005-.002.008a11.148 11.148 0 00.3 5.18 20.416 20.416 0 00-5.845-2.655 11.1 11.1 0 01-3.722-1.939zm-3.205-7.03a23.807 23.807 0 014.808-2.868c1.481 3.53-.214 6.9-2.665 8.929-1.5-1.582-2.448-3.66-2.143-6.06zm10.518 18.632a28.6 28.6 0 00-.668-.227c-3.774-1.46-4.129-5.015-3.42-6.931l-1.464-.336c-.153 2.691.487 4.87 1.788 6.428-.14-.032-.277-.064-.418-.094-7.375-1.587-9.579-3.694-9.23-7.68 7.814-1.97 14.227 1.415 17.724 6.058.302.447.635.9 1 1.362a36.304 36.304 0 00-2.01 2.855 24.3 24.3 0 00-3.263-1.422c-.014-.004-.026-.01-.04-.013zM55.49 41.849c-2.363-.855-5.65-1.073-8.809-.83-2.038.158-3.886.253-5.464.194l-.037-.004a8.242 8.242 0 00-.556-.027c-3.059-.204-4.954-1.095-4.981-3.457-.014-1.42.112-4.819-2.774-9.866 2.002-1.03 4.215-1.66 6.594-2.088.372-.068.73-.139 1.08-.213l.047-.01.216-.047c2.257-.437 6.924.207 8.21 3.365l1.193-.843c-1.306-1.766-3.623-2.999-5.842-3.588 4.54-1.8 5.698-4.427 5.673-6.621a10.447 10.447 0 003.866-.113c1.123 2.985 1.584 5.845 1.584 8.06V41.85zM51.93 9.517C48.37 5.176 40.646 0 29 0 17.352 0 9.628 5.176 6.07 9.517 1.593 14.977 0 21.488 0 25.761V48.24c0 4.273 1.594 10.784 6.07 16.244C9.627 68.824 17.351 74 29 74c11.646 0 19.371-5.175 22.93-9.517C56.406 59.023 58 52.512 58 48.239V25.761c0-4.273-1.594-10.784-6.07-16.244z" fill="#fff"/></svg>