<svg xmlns="http://www.w3.org/2000/svg" width="885.4" height="807.591" viewBox="0 0 664.05 605.692"><path d="M332.905 63.338L254.877 95.51l-32.666 78.507 32.412 78.262 78.277 32.428 78.1-32.254 32.585-78.426-32.427-78.281zm89.348 91.271l-73.217-71.3 52.725 21.834zM332.9 266.684l-95.154-92.661L332.9 81.361l95.154 92.662zm-68.64-161.761l52.564-21.672-73.212 71.295zm-20.719 88.508l73.218 71.3-52.737-21.85zm158.076 49.613L349 264.775l73.212-71.294zM332.9 100.089l-73.933 73.932 73.933 73.933 73.934-73.933zm-56.568 73.932l56.568-56.569 56.569 56.569-56.569 56.57zm102.252.277c-33.12 6.552-38.855 12.287-45.408 45.408a.282.282 0 01-.552 0c-6.552-33.121-12.287-38.856-45.408-45.408a.282.282 0 010-.552c33.121-6.552 38.856-12.288 45.408-45.408a.282.282 0 01.552 0c6.553 33.12 12.288 38.856 45.408 45.408a.281.281 0 010 .554zM109.041 419.643H95.162l-2.376-15.881h-16.88l-2.376 15.881H60.9l14-87.526h20.137zm-31.385-27.76H90.91l-6.626-44.263zm72.767 27.76c-.749-2.252-1.25-3.628-1.25-10.753v-13.756c0-8.127-2.751-11.129-9-11.129h-4.752v35.638h-13.755v-87.526h20.755c14.255 0 20.381 6.626 20.381 20.13v6.876c0 9-2.875 14.881-9 17.758 6.877 2.874 9.128 9.5 9.128 18.63v13.5c0 4.251.125 7.377 1.5 10.628zm-15-75.024V371.5h5.377c5.126 0 8.253-2.251 8.253-9.254v-8.628c0-6.25-2.126-9-7-9zm38.752-12.502h42.514v12.5H202.31v75.024h-13.755v-75.022h-14.38zM242.692 369h18.881v12.5h-18.881v25.633h23.757v12.5h-37.511v-87.516h37.511v12.5h-23.757zm52.26 2h17.755v12.5h-17.755v36.136H281.2v-87.519h36.385v12.5h-22.633zm78.397 48.643h-13.88l-2.375-15.881h-16.88l-2.376 15.881h-12.63l14-87.526h20.132zm-31.385-27.76h13.254l-6.627-44.263zm83.896-4.876v11.63c0 14-7 22-20.506 22s-20.506-8-20.506-22v-45.515c0-14 7-22.008 20.506-22.008s20.506 8 20.506 22.008v8.5h-13v-9.376c0-6.252-2.751-8.628-7.127-8.628S398.6 346 398.6 352.247v47.265c0 6.252 2.751 8.5 7.127 8.5s7.127-2.249 7.127-8.5v-12.5zm10.621-54.89H479v12.5h-14.38v75.024h-13.76v-75.022h-14.379zm67.89 0v67.519c0 6.253 2.751 8.5 7.127 8.5s7.128-2.251 7.128-8.5v-67.519h13v66.644c0 14-7 22.006-20.506 22.006s-20.506-8-20.506-22.006v-66.644zm72.018 62.142l9.379-62.142H604.9v87.526h-13v-62.769l-9.5 62.769h-13l-10.254-61.894v61.894h-12v-87.526h19.132zm-402.712 98.33h19.255v27.759c0 14-7 22.006-20.506 22.006s-20.506-8-20.506-22.006v-45.514c0-14.006 7-22.008 20.506-22.008s20.506 8 20.506 22.008v8.5h-13v-9.378c0-6.253-2.751-8.628-7.127-8.628s-7.128 2.375-7.128 8.628v47.264c0 6.253 2.751 8.5 7.128 8.5s7.127-2.248 7.127-8.5v-16.126h-6.252zm78.77 48.765h-13.879l-2.376-15.88h-16.88l-2.376 15.88h-12.629l14-87.526h20.132zM221.062 513.6h13.254l-6.627-44.263zm44.008-59.772h13.755v75.021h22.632v12.5H265.07zm48.636 0h13.755v75.021h22.631v12.5h-36.386zm62.394 36.886h18.88v12.5H376.1v25.633h23.757v12.5h-37.516v-87.519h37.511v12.5H376.1zm67.26 50.64c-.75-2.251-1.25-3.627-1.25-10.752v-13.756c0-8.128-2.751-11.129-9-11.129h-4.752v35.637H414.6v-87.526h20.757c14.255 0 20.381 6.626 20.381 20.131v6.875c0 9-2.875 14.881-9 17.758 6.877 2.874 9.128 9.5 9.128 18.63v13.5c0 4.251.125 7.377 1.5 10.628zm-15-75.024v26.885h5.376c5.127 0 8.254-2.252 8.254-9.254v-8.626c0-6.252-2.126-9-7-9zm54.384 46.016l-17.381-58.518h14.38l10.5 39.885 10.5-39.885h13.129L496.5 512.346v29.008h-13.756z" fill="#fff" data-name="Layer 3"/></svg>