<?xml version="1.0" encoding="utf-8"?><svg viewBox="0 0 39 32" xmlns="http://www.w3.org/2000/svg" xmlns:xlink="http://www.w3.org/1999/xlink"><style>:root>svg{display:none}:root>svg:target{display:block}</style><svg fill="none" viewBox="0 0 24 24" id="icon-about-list" xmlns="http://www.w3.org/2000/svg"><g clip-path="url(#aclip0_181_2710)" fill="#fff"><path d="M23.826 12.873a13.73 13.73 0 00-.56-2.25 14.14 14.14 0 00-1.739-3.455 13.746 13.746 0 00-3.024-3.158 14.002 14.002 0 00-3.68-1.99 11.142 11.142 0 00-4.318-.652 11.19 11.19 0 00-4.219 1.056 11.08 11.08 0 00-5.85 6.615 8.987 8.987 0 00-.29 4.377c.142.765.383 1.51.714 2.213a9.031 9.031 0 001.952 2.706 8.843 8.843 0 002.837 1.813c1.15.46 2.39.646 3.624.5a.354.354 0 00.266-.523.353.353 0 00-.349-.177 6.552 6.552 0 01-1.07.038c.124-.513.333-.946.623-1.29.32-.378.73-.67 1.026-1.072.313-.423.49-.942.51-1.48.22-.093.427-.21.62-.349.947-.687 1.407-1.866 1.12-2.865-.24-.835-.93-1.454-1.716-1.54-1.028-.114-2.146.758-1.832 1.855a1.3 1.3 0 001.01.923.352.352 0 10.123-.694.59.59 0 01-.455-.423c-.175-.61.556-1.018 1.078-.961.496.054.955.48 1.114 1.034.231.803-.256 1.665-.857 2.1-1.43 1.038-3.41.165-4.107-1.315a3.203 3.203 0 01-.285-1.005c-.1-.895.196-1.765.732-2.486a4.113 4.113 0 012.171-1.489c2.377-.679 4.79.975 5.593 3.182a5.227 5.227 0 01.013 3.536 6.559 6.559 0 01-3.9 3.936.352.352 0 00.245.66 7.29 7.29 0 002.123-1.226l1.91.904c.405.191.863.233 1.294.118a2.707 2.707 0 012.728.817l1.196 1.339c.259.29.618.449.996.449.564 0 1.077-.357 1.268-.889.396-1.1.839-2.193 1.124-3.326a13.81 13.81 0 00.24-5.556zm-8.774-1.49a5.97 5.97 0 00-.061-.124c.564-.661 1.43-1.189 2.053-1.233.603-.044 1.203.108 1.806.104.933-.007 1.922-.355 2.861-1.006.04-.027.078-.055.117-.083l.016.03.076.152a13.203 13.203 0 011.178 3.573c.197 1.12.247 2.26.15 3.392-.371.05-.707.077-1.02.082-1.001.015-1.877-.208-2.537-.644-.518-.343-.936-.806-1.479-1.117-.473-.27-1.044-.336-1.58-.307a4.881 4.881 0 00-1.038.172 5.853 5.853 0 00-.542-2.99zM3.109 5.702c.437.288.945.73 1.23 1.34.21.45.303.942.543 1.381.279.508.899 1.03 1.56 1.341l-.002.003a4.708 4.708 0 00-.668 1.047 4.14 4.14 0 00-.402 1.603v.006c-.711.13-1.388.04-1.849-.254-.42-.268-.786-.58-1.212-.835A3.758 3.758 0 00.76 10.84c.036-.312.09-.621.162-.926a9.623 9.623 0 01.705-1.953c.261-.54.568-1.058.919-1.545.045-.063.536-.732.562-.714zm6.093 11.503c-.288.39-.688.67-.998 1.037-.38.45-.645 1.01-.792 1.672a6.594 6.594 0 01-.893-.204 8.024 8.024 0 01-1.754-.78 6.922 6.922 0 01-.698-.462c-.052-.04-.71-.567-.698-.58.365-.405.944-.911 1.681-1.096.481-.122.984-.12 1.46-.273.337-.108.652-.289.925-.53.1.053.2.101.304.145a3.246 3.246 0 001.731.24c.008-.001.08-.008.08-.013-.05.309-.17.602-.348.844zm-2.385-1.623a1.879 1.879 0 01-.523.266c-.46.148-.949.142-1.416.26-.714.18-1.406.622-2.007 1.28a8.325 8.325 0 01-1.373-2.06 8.262 8.262 0 01-.79-3.785c.472.053.887.185 1.239.396.418.25.786.563 1.195.824.436.278 1.002.42 1.612.42.215 0 .435-.017.657-.053a3.91 3.91 0 001.406 2.452zm1.245-7.059c-.392.184-.756.42-1.085.702-.603-.222-1.239-.707-1.476-1.14-.233-.425-.318-.904-.523-1.342-.276-.591-.752-1.126-1.388-1.566a10.465 10.465 0 012.996-2.115c.872-.41 1.78-.695 2.705-.854.056.158.104.31.143.459.202.757.2 1.465-.005 2.047-.138.392-.35.73-.502 1.115-.3.764-.126 1.596.088 2.362a4.83 4.83 0 00-.953.332zm4.89.442c.1-.675.445-1.394.821-1.675.5-.374 1.1-.544 1.579-.948a.351.351 0 00.042-.497.353.353 0 00-.497-.042c-.465.392-1.06.56-1.546.922-.419.313-.869 1.02-1.05 1.871a5.989 5.989 0 00-.584-.246 4.767 4.767 0 00-2.001-.27c-.2-.7-.363-1.408-.133-1.993.153-.387.372-.745.51-1.139.253-.716.26-1.567.022-2.462a6.554 6.554 0 00-.11-.371l.26-.02a9.45 9.45 0 01.678-.03 10.7 10.7 0 011.513.096c.814.112 1.613.323 2.381.617a13.364 13.364 0 011.323.591 8.352 8.352 0 01-.124.557 3.75 3.75 0 01-.257.695.353.353 0 00.635.306 5.21 5.21 0 00.393-1.203 13.033 13.033 0 014.68 4.694 7.06 7.06 0 01-.177.127c-.822.57-1.674.874-2.465.88-.615.005-1.235-.146-1.85-.102-.838.06-1.754.648-2.374 1.296a5.823 5.823 0 00-1.669-1.654zm8.846 12.552a.632.632 0 01-.479.41.632.632 0 01-.597-.202l-1.195-1.339a3.408 3.408 0 00-3.435-1.028c-.27.072-.558.046-.81-.074l-1.654-.782a7.266 7.266 0 001.636-2.616 5.99 5.99 0 00.212-.734c.768-.28 1.785-.375 2.386-.031.267.153.508.355.763.569.213.178.434.363.678.524.754.499 1.73.761 2.83.761h.105c.29-.005.598-.027.928-.067a13.287 13.287 0 01-.653 2.621l-.715 1.988z"/><path d="M11.13 10.283a.353.353 0 00-.314-.63.911.911 0 00-.498.866.353.353 0 10.703-.046.21.21 0 01.109-.19zm1.945 1.088a1.691 1.691 0 00-.701.237.351.351 0 00.1.643.353.353 0 00.267-.041.98.98 0 01.407-.138.352.352 0 00-.073-.7zm-.34 2.678a.352.352 0 00.29.405c.138.023.272.065.399.125a.352.352 0 10.302-.637 2.204 2.204 0 00-.586-.183.352.352 0 00-.405.29zm-.83 1.882a.353.353 0 00-.42.567c.115.085.2.205.243.341a.35.35 0 00.305.246.352.352 0 00.368-.456 1.392 1.392 0 00-.496-.698zM8.7 10.355a.352.352 0 10-.673.21c.075.235.22.44.418.587a.35.35 0 00.416.003.352.352 0 00.004-.569.462.462 0 01-.165-.231zm-1.313 1.769a.185.185 0 01-.11-.017.35.35 0 00-.474.156.353.353 0 00.156.473.892.892 0 00.542.083.352.352 0 10-.114-.695z"/></g><defs><clipPath id="aclip0_181_2710"><path fill="#fff" d="M0 0h24v24H0z"/></clipPath></defs></svg><svg fill="none" viewBox="0 0 16 16" id="icon-arrow-breadcrumb" xmlns="http://www.w3.org/2000/svg"><g clip-path="url(#bclip0_180_2517)"><path d="M6.5 11.5L10 8 6.5 4.5" stroke="#575656" stroke-width="1.5"/></g><defs><clipPath id="bclip0_180_2517"><path fill="#fff" transform="rotate(-90 8 4)" d="M0 0h8v8H0z"/></clipPath></defs></svg><svg fill="none" viewBox="0 0 14 8" id="icon-arrow-more" xmlns="http://www.w3.org/2000/svg"><path d="M13.354 4.354a.5.5 0 000-.708L10.172.464a.5.5 0 00-.708.708L12.293 4 9.464 6.828a.5.5 0 10.708.708l3.182-3.182zM0 4.5h13v-1H0v1z" fill="#fff"/></svg><svg fill="none" viewBox="0 0 39 12" id="icon-arrow-next" xmlns="http://www.w3.org/2000/svg"><path d="M38.53 5.47a.75.75 0 010 1.06l-4.773 4.773a.75.75 0 01-1.06-1.06L36.939 6l-4.242-4.243a.75.75 0 111.06-1.06L38.53 5.47zM0 5.25h38v1.5H0v-1.5z" fill="currentColor"/></svg><svg fill="none" viewBox="0 0 39 12" id="icon-arrow-prev" xmlns="http://www.w3.org/2000/svg"><path d="M.47 5.47a.75.75 0 000 1.06l4.773 4.773a.75.75 0 101.06-1.06L2.061 6l4.242-4.243a.75.75 0 00-1.06-1.06L.47 5.47zM39 5.25H1v1.5h38v-1.5z" fill="currentColor"/></svg><svg fill="none" viewBox="0 0 24 24" id="icon-basket" xmlns="http://www.w3.org/2000/svg"><path d="M11.998 2a7 7 0 017 7h1.074a1 1 0 01.997.923l.846 11a1 1 0 01-.92 1.074l-.077.003H3.078a1 1 0 01-1-1l.003-.077.846-11A1 1 0 013.924 9h1.074a7 7 0 017-7zm7.147 9H4.85l-.693 9h15.681l-.693-9zm-5.147 2v2h-4v-2h4zm-2-9a5 5 0 00-4.995 4.783L6.998 9h10a5 5 0 00-4.783-4.995L11.998 4z" fill="currentColor"/></svg><svg fill="none" viewBox="0 0 24 24" id="icon-delete" xmlns="http://www.w3.org/2000/svg"><g clip-path="url(#gclip0_185_3061)"><path d="M7 4V2h10v2h5v2h-2v15a1 1 0 01-1 1H5a1 1 0 01-1-1V6H2V4h5zM6 6v14h12V6H6zm3 3h2v8H9V9zm4 0h2v8h-2V9z" fill="#fff"/></g><defs><clipPath id="gclip0_185_3061"><path fill="#fff" d="M0 0h24v24H0z"/></clipPath></defs></svg><svg fill="none" viewBox="0 0 32 32" id="icon-facebook" xmlns="http://www.w3.org/2000/svg"><path d="M17.33 26.585a10.668 10.668 0 00-1.333-21.25 10.667 10.667 0 00-1.333 21.25v-7.917h-2.667v-2.667h2.667v-2.205c0-1.783.187-2.43.533-3.081A3.635 3.635 0 0116.712 9.2c.51-.273 1.143-.437 2.25-.508.438-.028 1.006.007 1.703.107v2.533h-.668c-1.222 0-1.728.058-2.029.219a.969.969 0 00-.419.419c-.16.301-.218.6-.218 1.824V16h3.333l-.667 2.667h-2.666v7.917zm-1.333 2.75c-7.364 0-13.333-5.97-13.333-13.334S8.634 2.668 15.997 2.668c7.364 0 13.334 5.97 13.334 13.333 0 7.364-5.97 13.334-13.334 13.334z" fill="currentColor"/></svg><svg fill="none" viewBox="0 0 24 24" id="icon-favorites" xmlns="http://www.w3.org/2000/svg"><path d="M12.001 4.529a5.998 5.998 0 018.242.228 6 6 0 01.236 8.236l-8.48 8.492-8.478-8.492a6 6 0 018.48-8.464zm6.826 1.641a3.998 3.998 0 00-5.49-.153l-1.335 1.198-1.336-1.197a3.999 3.999 0 00-5.494.154 4 4 0 00-.192 5.451L12 18.654l7.02-7.03a4 4 0 00-.193-5.454z" fill="currentColor"/></svg><svg fill="none" viewBox="0 0 32 32" id="icon-instagram" xmlns="http://www.w3.org/2000/svg"><g clip-path="url(#jclip0_307_681)"><path d="M16.001 12a4 4 0 100 8 4 4 0 000-8zm0-2.667a6.667 6.667 0 110 13.333 6.667 6.667 0 010-13.333zm8.667-.334a1.667 1.667 0 11-3.333 0 1.667 1.667 0 013.333 0zm-8.667-3.666c-3.298 0-3.837.009-5.372.077-1.045.05-1.746.19-2.397.443a3.848 3.848 0 00-1.44.937 3.853 3.853 0 00-.939 1.44c-.253.653-.393 1.353-.441 2.397-.07 1.472-.077 1.987-.077 5.372 0 3.299.009 3.838.077 5.372.05 1.044.19 1.747.441 2.396.227.58.494.998.936 1.44.45.448.867.716 1.44.938.659.254 1.36.396 2.4.444 1.472.069 1.987.077 5.372.077 3.299 0 3.838-.01 5.372-.077 1.043-.05 1.746-.19 2.396-.442a3.896 3.896 0 001.44-.936c.45-.449.718-.866.939-1.44.253-.657.395-1.36.443-2.4.069-1.472.077-1.986.077-5.372 0-3.298-.01-3.837-.077-5.372-.05-1.042-.19-1.746-.443-2.397a3.882 3.882 0 00-.937-1.44 3.845 3.845 0 00-1.44-.939c-.654-.253-1.355-.393-2.398-.441-1.472-.07-1.986-.077-5.372-.077zm0-2.667c3.623 0 4.075.013 5.496.08 1.42.067 2.387.29 3.238.62a6.5 6.5 0 012.362 1.537 6.543 6.543 0 011.538 2.363c.329.85.553 1.817.62 3.237.062 1.422.08 1.874.08 5.496 0 3.623-.014 4.075-.08 5.496-.067 1.42-.291 2.387-.62 3.238a6.51 6.51 0 01-1.538 2.362 6.554 6.554 0 01-2.362 1.538c-.85.329-1.818.553-3.238.62-1.421.062-1.873.08-5.496.08-3.622 0-4.074-.014-5.496-.08-1.42-.067-2.386-.291-3.237-.62a6.522 6.522 0 01-2.363-1.538 6.54 6.54 0 01-1.537-2.362c-.33-.85-.553-1.818-.62-3.238-.063-1.421-.08-1.873-.08-5.496 0-3.622.013-4.074.08-5.496.067-1.421.29-2.386.62-3.237a6.507 6.507 0 011.537-2.363 6.53 6.53 0 012.363-1.537c.85-.33 1.816-.553 3.237-.62 1.422-.063 1.874-.08 5.496-.08z" fill="#977E4B"/></g><defs><clipPath id="jclip0_307_681"><path fill="#fff" d="M0 0h32v32H0z"/></clipPath></defs></svg><svg fill="none" viewBox="0 0 16 16" id="icon-rarity" xmlns="http://www.w3.org/2000/svg"><path d="M4.871 4.955L8 13.401l3.129-8.446H4.87zM8 1.759L5.482 4.017h5.036L8 1.76zM3.871 4.955H0c.017.273.115.54.292.764l6.629 8.396c.13.166.297.3.488.39L3.87 4.955zM2.627 1.496c-.475 0-.91.24-1.163.643L.282 4.017h3.795l2.811-2.52h-4.26zm11.91.643a1.368 1.368 0 00-1.165-.643h-4.26l2.81 2.521h3.796L14.536 2.14zm-2.408 2.816l-3.538 9.55c.19-.09.358-.224.488-.39l6.629-8.396c.177-.224.275-.491.292-.764h-3.871z" fill="currentColor"/></svg><svg fill="none" viewBox="0 0 24 24" id="icon-search" xmlns="http://www.w3.org/2000/svg"><path d="M18.031 16.617l4.283 4.282-1.415 1.415-4.282-4.283A8.96 8.96 0 0111 20c-4.968 0-9-4.032-9-9s4.032-9 9-9 9 4.032 9 9a8.96 8.96 0 01-1.969 5.617zm-2.006-.742A6.977 6.977 0 0018 11c0-3.868-3.133-7-7-7-3.868 0-7 3.132-7 7 0 3.867 3.132 7 7 7a6.977 6.977 0 004.875-1.975l.15-.15z" fill="currentColor"/></svg><svg fill="none" viewBox="0 0 32 32" id="icon-youtube" xmlns="http://www.w3.org/2000/svg"><path d="M26.139 9.325c-.102-.397-.39-.697-.719-.789-.583-.164-3.423-.537-9.423-.537s-8.837.373-9.425.537c-.325.09-.613.39-.716.79-.145.565-.525 2.934-.525 6.673 0 3.738.38 6.106.525 6.674.101.396.39.696.717.787.587.165 3.424.539 9.424.539s8.84-.374 9.426-.538c.325-.09.613-.39.716-.789.145-.565.525-2.94.525-6.673 0-3.734-.38-6.107-.525-6.674zm2.582-.662c.61 2.376.61 7.336.61 7.336s0 4.96-.61 7.336c-.338 1.313-1.329 2.346-2.584 2.696-2.278.634-10.14.634-10.14.634s-7.857 0-10.14-.634c-1.26-.355-2.249-1.387-2.584-2.696-.609-2.376-.609-7.336-.609-7.336s0-4.96.61-7.336c.338-1.314 1.329-2.347 2.583-2.696 2.283-.635 10.14-.635 10.14-.635s7.862 0 10.14.635c1.26.354 2.25 1.386 2.584 2.696zm-15.39 12.002v-9.333l8 4.667-8 4.666z" fill="#977E4B"/></svg></svg>