<?xml version="1.0" encoding="utf-8"?><svg viewBox="0 0 39 32" xmlns="http://www.w3.org/2000/svg" xmlns:xlink="http://www.w3.org/1999/xlink"><style>:root>svg{display:none}:root>svg:target{display:block}</style><svg fill="none" viewBox="0 0 39 12" id="icon-arrow-next" xmlns="http://www.w3.org/2000/svg"><path d="M38.53 5.47a.75.75 0 010 1.06l-4.773 4.773a.75.75 0 01-1.06-1.06L36.939 6l-4.242-4.243a.75.75 0 111.06-1.06L38.53 5.47zM0 5.25h38v1.5H0v-1.5z" fill="currentColor"/></svg><svg fill="none" viewBox="0 0 39 12" id="icon-arrow-prev" xmlns="http://www.w3.org/2000/svg"><path d="M.47 5.47a.75.75 0 000 1.06l4.773 4.773a.75.75 0 101.06-1.06L2.061 6l4.242-4.243a.75.75 0 00-1.06-1.06L.47 5.47zM39 5.25H1v1.5h38v-1.5z" fill="currentColor"/></svg><svg fill="none" viewBox="0 0 24 24" id="icon-basket" xmlns="http://www.w3.org/2000/svg"><path d="M11.998 2a7 7 0 017 7h1.074a1 1 0 01.997.923l.846 11a1 1 0 01-.92 1.074l-.077.003H3.078a1 1 0 01-1-1l.003-.077.846-11A1 1 0 013.924 9h1.074a7 7 0 017-7zm7.147 9H4.85l-.693 9h15.681l-.693-9zm-5.147 2v2h-4v-2h4zm-2-9a5 5 0 00-4.995 4.783L6.998 9h10a5 5 0 00-4.783-4.995L11.998 4z" fill="currentColor"/></svg><svg fill="none" viewBox="0 0 32 32" id="icon-facebook" xmlns="http://www.w3.org/2000/svg"><path d="M17.33 26.585a10.668 10.668 0 00-1.333-21.25 10.667 10.667 0 00-1.333 21.25v-7.917h-2.667v-2.667h2.667v-2.205c0-1.783.187-2.43.533-3.081A3.635 3.635 0 0116.712 9.2c.51-.273 1.143-.437 2.25-.508.438-.028 1.006.007 1.703.107v2.533h-.668c-1.222 0-1.728.058-2.029.219a.969.969 0 00-.419.419c-.16.301-.218.6-.218 1.824V16h3.333l-.667 2.667h-2.666v7.917zm-1.333 2.75c-7.364 0-13.333-5.97-13.333-13.334S8.634 2.668 15.997 2.668c7.364 0 13.334 5.97 13.334 13.333 0 7.364-5.97 13.334-13.334 13.334z" fill="currentColor"/></svg><svg fill="none" viewBox="0 0 24 24" id="icon-favorites" xmlns="http://www.w3.org/2000/svg"><path d="M12.001 4.529a5.998 5.998 0 018.242.228 6 6 0 01.236 8.236l-8.48 8.492-8.478-8.492a6 6 0 018.48-8.464zm6.826 1.641a3.998 3.998 0 00-5.49-.153l-1.335 1.198-1.336-1.197a3.999 3.999 0 00-5.494.154 4 4 0 00-.192 5.451L12 18.654l7.02-7.03a4 4 0 00-.193-5.454z" fill="currentColor"/></svg><svg fill="none" viewBox="0 0 32 32" id="icon-instagram" xmlns="http://www.w3.org/2000/svg"><g clip-path="url(#fclip0_307_681)"><path d="M16.001 12a4 4 0 100 8 4 4 0 000-8zm0-2.667a6.667 6.667 0 110 13.333 6.667 6.667 0 010-13.333zm8.667-.334a1.667 1.667 0 11-3.333 0 1.667 1.667 0 013.333 0zm-8.667-3.666c-3.298 0-3.837.009-5.372.077-1.045.05-1.746.19-2.397.443a3.848 3.848 0 00-1.44.937 3.853 3.853 0 00-.939 1.44c-.253.653-.393 1.353-.441 2.397-.07 1.472-.077 1.987-.077 5.372 0 3.299.009 3.838.077 5.372.05 1.044.19 1.747.441 2.396.227.58.494.998.936 1.44.45.448.867.716 1.44.938.659.254 1.36.396 2.4.444 1.472.069 1.987.077 5.372.077 3.299 0 3.838-.01 5.372-.077 1.043-.05 1.746-.19 2.396-.442a3.896 3.896 0 001.44-.936c.45-.449.718-.866.939-1.44.253-.657.395-1.36.443-2.4.069-1.472.077-1.986.077-5.372 0-3.298-.01-3.837-.077-5.372-.05-1.042-.19-1.746-.443-2.397a3.882 3.882 0 00-.937-1.44 3.845 3.845 0 00-1.44-.939c-.654-.253-1.355-.393-2.398-.441-1.472-.07-1.986-.077-5.372-.077zm0-2.667c3.623 0 4.075.013 5.496.08 1.42.067 2.387.29 3.238.62a6.5 6.5 0 012.362 1.537 6.543 6.543 0 011.538 2.363c.329.85.553 1.817.62 3.237.062 1.422.08 1.874.08 5.496 0 3.623-.014 4.075-.08 5.496-.067 1.42-.291 2.387-.62 3.238a6.51 6.51 0 01-1.538 2.362 6.554 6.554 0 01-2.362 1.538c-.85.329-1.818.553-3.238.62-1.421.062-1.873.08-5.496.08-3.622 0-4.074-.014-5.496-.08-1.42-.067-2.386-.291-3.237-.62a6.522 6.522 0 01-2.363-1.538 6.54 6.54 0 01-1.537-2.362c-.33-.85-.553-1.818-.62-3.238-.063-1.421-.08-1.873-.08-5.496 0-3.622.013-4.074.08-5.496.067-1.421.29-2.386.62-3.237a6.507 6.507 0 011.537-2.363 6.53 6.53 0 012.363-1.537c.85-.33 1.816-.553 3.237-.62 1.422-.063 1.874-.08 5.496-.08z" fill="#977E4B"/></g><defs><clipPath id="fclip0_307_681"><path fill="#fff" d="M0 0h32v32H0z"/></clipPath></defs></svg><svg fill="none" viewBox="0 0 24 24" id="icon-search" xmlns="http://www.w3.org/2000/svg"><path d="M18.031 16.617l4.283 4.282-1.415 1.415-4.282-4.283A8.96 8.96 0 0111 20c-4.968 0-9-4.032-9-9s4.032-9 9-9 9 4.032 9 9a8.96 8.96 0 01-1.969 5.617zm-2.006-.742A6.977 6.977 0 0018 11c0-3.868-3.133-7-7-7-3.868 0-7 3.132-7 7 0 3.867 3.132 7 7 7a6.977 6.977 0 004.875-1.975l.15-.15z" fill="currentColor"/></svg><svg fill="none" viewBox="0 0 32 32" id="icon-youtube" xmlns="http://www.w3.org/2000/svg"><path d="M26.139 9.325c-.102-.397-.39-.697-.719-.789-.583-.164-3.423-.537-9.423-.537s-8.837.373-9.425.537c-.325.09-.613.39-.716.79-.145.565-.525 2.934-.525 6.673 0 3.738.38 6.106.525 6.674.101.396.39.696.717.787.587.165 3.424.539 9.424.539s8.84-.374 9.426-.538c.325-.09.613-.39.716-.789.145-.565.525-2.94.525-6.673 0-3.734-.38-6.107-.525-6.674zm2.582-.662c.61 2.376.61 7.336.61 7.336s0 4.96-.61 7.336c-.338 1.313-1.329 2.346-2.584 2.696-2.278.634-10.14.634-10.14.634s-7.857 0-10.14-.634c-1.26-.355-2.249-1.387-2.584-2.696-.609-2.376-.609-7.336-.609-7.336s0-4.96.61-7.336c.338-1.314 1.329-2.347 2.583-2.696 2.283-.635 10.14-.635 10.14-.635s7.862 0 10.14.635c1.26.354 2.25 1.386 2.584 2.696zm-15.39 12.002v-9.333l8 4.667-8 4.666z" fill="#977E4B"/></svg></svg>